<svg width="16" height="16" viewBox="0 0 16 16" fill="none" xmlns="http://www.w3.org/2000/svg">
<path d="M4.2325 5.45246V6.35722H0.500478V5.45246H4.2325ZM0.500478 14.5953H4.2325V15.5H0.500478V14.5953ZM10.9785 14.5952H15.0485V15.5H10.9785V14.5952ZM7.27435 13.2143H3.20433V12.3096H7.27435V13.2143ZM5.57065 15.5V14.5952H9.64068V15.5H5.57065ZM15.0484 10.0239V10.9286H11.3164V10.0239H15.0484ZM8.61219 7.73811H12.6822V8.64287H8.61219V7.73811ZM9.64068 5.45247V6.35723H5.57065V5.45247H9.64068ZM0.500478 10.9286V10.0239H4.5705V10.9286H0.500478ZM12.6822 12.3096V13.2143H8.61219V12.3096H12.6822ZM3.20433 7.73811H7.27435V8.64287H3.20433V7.73811ZM5.9085 10.9286V10.0239H9.97852V10.9286H5.9085ZM10.6269 2.76703L10.4046 1.89694L14.436 0.634739L14.6583 1.50483L10.6269 2.76703Z" stroke="white"/>
</svg>
