<svg width="14" height="21" viewBox="0 0 14 21" fill="none" xmlns="http://www.w3.org/2000/svg">
<path d="M7 4.33333C7.91304 4.33333 8.67391 5.16667 8.67391 6.16667V7.33333C8.67391 8.66667 9.22174 9.66667 9.92174 10.4667C10.5609 11.2 10.9565 12.2333 10.9565 13.3333C10.9565 15.6333 9.25217 17.5 7.15217 17.5H6.84783C4.74783 17.5 3.04348 15.6333 3.04348 13.3333C3.04348 12.2333 3.43913 11.2 4.07826 10.4667C4.77826 9.66667 5.32609 8.66667 5.32609 7.33333V6.16667C5.32609 5.16667 6.08696 4.33333 7 4.33333ZM7 4.33333V0M7 7.7V12.3333M5.32609 7.66667H8.67391M5.6913 12.3333H8.33913M0 13.3333H1.52174M12.4783 13.3333H14M2.03913 18.7667L3.10435 17.6M10.8652 9.1L11.9304 7.93333M2.03913 7.9L3.10435 9.06667M10.8652 17.5667L11.9304 18.7333M7 19.3333V21" stroke="white"/>
</svg>
