<svg width="16" height="17" viewBox="0 0 16 17" fill="none" xmlns="http://www.w3.org/2000/svg">
<path d="M6.14172 16V5.76608M8.37725 9.71345L6.14172 10.883M6.14172 8.51462L3.73852 7.16959M15 2.25731L13.7984 1L9.10379 5.91228M15 3.5731L13.7984 2.31579L9.94212 6.38012M8.48902 12.3743V15.7368H14.9721M10.0539 11.7018V12.6667H13.016V9.59649H11.1996M9.0479 5.91228C9.27146 5.47368 9.38323 5.00585 9.38323 4.47953C9.38323 2.81287 8.0978 1.46784 6.50499 1.46784C4.91218 1.46784 3.62675 2.81287 3.62675 4.47953C3.62675 4.53801 3.62675 4.59649 3.62675 4.68421C2.08982 5.18129 1 6.67251 1 8.45614C1 10.6491 2.70459 12.4327 4.8004 12.4327C5.38723 12.4327 7.45509 12.4327 8.01397 12.4327C9.77445 12.4327 11.2275 10.9415 11.2275 9.07018C11.1996 7.60819 10.3054 6.38012 9.0479 5.91228Z" stroke="white" stroke-miterlimit="10"/>
</svg>
