<svg width="18" height="15" viewBox="0 0 18 15" fill="none" xmlns="http://www.w3.org/2000/svg">
<path d="M3 9C1.5 9 1 7.5 1 6H0.5C0.5 9 0.999999 11.6184 3.25402 11.6184M13.4538 7.38998C14.9538 5.89 17 6.8722 17 8.87231C17 10.8724 15.246 11.6184 13.746 11.6184M8.5 4C5.46243 4 3 6.68629 3 10C3 13.3137 5.46243 14 8.5 14C11.5376 14 14 13.3137 14 10C14 6.68629 11.5376 4 8.5 4ZM8.5 4C9.32842 4 10 3.32843 10 2.5C10 1.67157 9.32843 1 8.5 1C7.67157 1 7 1.67157 7 2.5C7 3.32843 7.67157 4 8.5 4ZM4.03221 6.5L13 6.54937" stroke="white"/>
</svg>
