<svg width="16" height="16" viewBox="0 0 16 16" fill="none" xmlns="http://www.w3.org/2000/svg">
<path d="M7.5 4V6.5H1.1767C1.1213 6.44011 1.03745 6.33186 0.947214 6.15139C0.741703 5.74037 0.5 4.94768 0.5 3.5C0.5 2.05232 0.741703 1.25963 0.947214 0.848607C1.03745 0.668138 1.1213 0.55989 1.1767 0.5H15.5V3.5H15H14.5V4V13V13.5H15H15.5V15.5H0.5V13.5H10H10.5V13V4V3.5H10H8H7.5V4ZM8.46864 8.5C8.35823 9.3765 7.95974 10.1971 7.32843 10.8284C6.57828 11.5786 5.56087 12 4.5 12C3.43913 12 2.42172 11.5786 1.67157 10.8284C1.04026 10.1971 0.641767 9.3765 0.531358 8.5H8.46864Z" stroke="white"/>
</svg>
