<svg width="18" height="14" viewBox="0 0 18 14" fill="none" xmlns="http://www.w3.org/2000/svg">
<path d="M2.94286 10.3333H10.6571C11.7617 10.3333 12.6571 9.4379 12.6571 8.33333V8.33333C12.6571 7.22876 11.7617 6.33333 10.6571 6.33333H3C1.89543 6.33333 1 7.22876 1 8.33333V11C1 12.1046 1.89543 13 3 13H11.5878C12.256 13 12.88 12.6664 13.251 12.1108L16.3396 7.4861C16.937 6.59163 16.1342 5.42681 15.0857 5.66667V5.66667M1.48571 6.33333L5.25702 1.73217C5.6369 1.26871 6.20458 1 6.80383 1H14.5429C15.6474 1 16.5429 1.90702 16.5429 3.01159V3.01159C16.5429 3.43485 16.4086 3.85098 16.1593 4.19308L12.6571 9" stroke="white"/>
</svg>
