<svg width="15" height="17" viewBox="0 0 15 17" fill="none" xmlns="http://www.w3.org/2000/svg">
<path d="M8.04555 14.9829L7.68005 14.7146L7.37739 15.0522C6.93389 15.5469 6.15322 16.1176 5.16205 16.2939C4.19354 16.4661 2.96271 16.2732 1.56401 15.1435C1.29026 14.9224 1.16023 14.7697 1.1033 14.6812C1.18518 14.6408 1.3286 14.5925 1.55322 14.5503C1.83117 14.4981 2.17337 14.4655 2.55228 14.4447C2.92934 14.4241 3.32864 14.4159 3.71935 14.4093C3.76605 14.4085 3.8127 14.4077 3.8592 14.4069C4.19749 14.4014 4.5281 14.3959 4.81619 14.3829C5.13305 14.3686 5.44521 14.3438 5.67358 14.2847C5.77447 14.2586 5.9461 14.2057 6.07963 14.0767C6.15721 14.0018 6.23465 13.8885 6.25787 13.7367C6.28081 13.5867 6.24189 13.4574 6.1942 13.3649C5.96064 12.9122 5.49535 12.8347 5.16981 12.8278C4.90047 12.822 4.5725 12.8627 4.25415 12.9021C4.18247 12.911 4.11128 12.9198 4.04136 12.928C3.22594 13.0238 2.32829 13.0767 1.46791 12.6597C0.722674 12.2985 0.50004 11.5767 0.5 10.8079C0.499989 10.6003 0.516906 10.399 0.541711 10.2158C1.40801 10.8792 2.53872 11.2177 3.48664 11.3627C4.11316 11.4586 4.70195 11.4768 5.1486 11.4344C5.36739 11.4136 5.57986 11.3758 5.75223 11.3104C5.83669 11.2784 5.94226 11.2285 6.03505 11.1467C6.13139 11.0618 6.24972 10.9076 6.24979 10.6869C6.24986 10.489 6.15441 10.3449 6.08134 10.2629C6.00813 10.1808 5.92218 10.1202 5.85128 10.0767C5.70849 9.98908 5.52636 9.91084 5.34517 9.84011C5.16932 9.77147 4.96629 9.69939 4.75673 9.625C4.74417 9.62054 4.73158 9.61607 4.71897 9.61159C4.49294 9.53132 4.25566 9.44668 4.01569 9.354C3.53154 9.16701 3.06244 8.95689 2.69108 8.70962C2.31302 8.45788 2.09855 8.2087 2.02343 7.96831C1.83749 7.37326 2.05121 6.72058 2.3903 6.15011C2.53106 5.91328 2.6834 5.708 2.81186 5.55063C2.84925 5.57854 2.88893 5.60792 2.93066 5.63852C3.22671 5.85565 3.63132 6.13822 4.05619 6.39161C4.4722 6.63973 4.94397 6.88213 5.36687 6.99142C5.57703 7.04574 5.81992 7.07943 6.0558 7.03131C6.31526 6.97837 6.55389 6.8267 6.69414 6.55486C6.90368 6.14872 6.79181 5.75476 6.60149 5.4614C6.42246 5.18544 6.14243 4.93981 5.86282 4.72785C5.57617 4.51055 5.24431 4.29551 4.93 4.09282C4.91689 4.08436 4.90381 4.07593 4.89076 4.06752C4.77493 3.99284 4.66161 3.91978 4.55208 3.84792C4.84227 3.61144 5.14194 3.41203 5.45934 3.20081C5.58572 3.11671 5.71491 3.03074 5.84744 2.93981C6.38606 2.57027 6.93652 2.14258 7.43027 1.47256C7.6435 1.57121 7.93947 1.71653 8.28848 1.9103C8.932 2.26756 9.74961 2.78607 10.5601 3.47572C10.1653 3.99168 9.70864 4.68391 9.35045 5.32734C9.12173 5.73821 8.92059 6.15135 8.80272 6.50018C8.74461 6.67216 8.69744 6.85502 8.68758 7.0276C8.67879 7.18126 8.69265 7.45097 8.90188 7.65374C9.1839 7.92705 9.53711 7.84132 9.70763 7.77328C9.89585 7.69817 10.0819 7.56653 10.2466 7.43147C10.5846 7.15429 10.9661 6.74997 11.314 6.35157C11.666 5.94841 12.0003 5.53175 12.2456 5.21731C12.2688 5.1876 12.2912 5.15877 12.3127 5.13092C12.3977 5.2241 12.4899 5.33466 12.581 5.4612C12.9013 5.90607 13.1899 6.52125 13.1468 7.2658C13.1325 7.51358 12.9664 7.80407 12.5865 8.13585C12.2153 8.45997 11.7116 8.76063 11.1788 9.03706C10.8455 9.20998 10.5328 9.35801 10.2401 9.49661C10.0518 9.58574 9.87177 9.67097 9.69976 9.75642C9.49608 9.85762 9.3009 9.96098 9.15236 10.0625C9.07908 10.1126 8.99545 10.1767 8.92522 10.2553C8.86322 10.3247 8.74992 10.4736 8.74985 10.6865C8.74974 11.0437 9.02689 11.225 9.16408 11.2918C9.32428 11.3698 9.51481 11.4097 9.7003 11.4292C10.0807 11.4694 10.5786 11.438 11.1282 11.3209C12.0294 11.1289 13.1226 10.6947 14.134 9.89076C14.2556 10.4887 14.3353 10.9873 14.3126 11.4183C14.2972 11.7121 14.2339 11.9436 14.1195 12.1343C14.0065 12.3226 13.8236 12.5043 13.5153 12.668C13.2382 12.815 12.8392 12.8916 12.3576 12.9127C11.8841 12.9333 11.3835 12.899 10.9283 12.8614C10.8712 12.8567 10.8135 12.8518 10.7558 12.8469C10.3887 12.8155 10.0206 12.7841 9.78202 12.8053C9.70796 12.8119 9.60828 12.8259 9.5101 12.8645C9.41742 12.901 9.23884 12.9952 9.16001 13.2138C9.08096 13.433 9.15835 13.6213 9.20956 13.7131C9.26352 13.8099 9.33716 13.8907 9.40173 13.9532C9.75838 14.2989 10.2202 14.4459 10.6639 14.5068C11.1074 14.5678 11.5869 14.5496 12.0281 14.5194C12.1776 14.5091 12.321 14.4977 12.4592 14.4867C12.7481 14.4637 13.0146 14.4425 13.2689 14.4374C13.2901 14.437 13.3109 14.4367 13.3312 14.4365C12.7618 15.1354 12.2157 15.6941 11.5618 15.9594C10.7868 16.2738 9.72252 16.2139 8.04555 14.9829ZM5.33474 13.8547C5.3342 13.855 5.33066 13.8536 5.32577 13.8496C5.33285 13.8524 5.33529 13.8544 5.33474 13.8547ZM5.45889 13.3054C5.45897 13.3054 5.45745 13.3061 5.45406 13.3074C5.4571 13.3059 5.4588 13.3053 5.45889 13.3054ZM5.41133 10.3696C5.41133 10.3696 5.41073 10.3699 5.40943 10.3705C5.41067 10.3699 5.41133 10.3696 5.41133 10.3696Z" stroke="white"/>
</svg>
