<svg width="18" height="18" viewBox="0 0 18 18" fill="none" xmlns="http://www.w3.org/2000/svg">
<path d="M5.91714 15.6732L15.6732 5.91714M6.15124 12.8634C6.15124 13.5658 5.6049 14.1122 4.90246 14.1122C4.20002 14.1122 3.65368 13.5658 3.65368 12.8634C3.65368 12.1609 4.90246 10.3268 4.90246 10.3268C4.90246 10.3268 6.15124 12.1609 6.15124 12.8634ZM9.81939 9.19524C9.81939 9.89768 9.27305 10.444 8.57061 10.444C7.86817 10.444 7.32183 9.89768 7.32183 9.19524C7.32183 8.4928 8.57061 6.65866 8.57061 6.65866C8.57061 6.65866 9.81939 8.4928 9.81939 9.19524ZM13.488 5.52685C13.488 6.22929 12.9417 6.77563 12.2393 6.77563C11.5368 6.77563 10.9905 6.22929 10.9905 5.52685C10.9905 4.82441 12.2393 2.99026 12.2393 2.99026C12.2393 2.99026 13.488 4.82441 13.488 5.52685ZM6.77577 5.72181C6.61968 5.64376 6.42456 5.64376 6.30748 5.72181L5.48797 5.29254L6.30748 4.82425C6.46358 4.9023 6.61968 4.94132 6.77577 4.82425C6.9709 4.70717 7.04895 4.434 6.93187 4.19986C6.8148 4.00473 6.54163 3.92669 6.30748 4.04376C6.15138 4.12181 6.07334 4.2779 6.07334 4.47303L5.25382 4.94132V4.00473C5.40992 3.92669 5.48797 3.77059 5.48797 3.61449C5.56602 3.34132 5.3709 3.1462 5.09773 3.1462C4.86358 3.1462 4.66846 3.34132 4.66846 3.57547C4.66846 3.77059 4.78553 3.88766 4.9026 3.96571V4.9023L4.08309 4.47303C4.08309 4.31693 4.00504 4.16083 3.84894 4.04376C3.65382 3.92669 3.38065 4.00473 3.26358 4.19986C3.14651 4.434 3.22455 4.70717 3.41968 4.82425C3.57577 4.9023 3.7709 4.9023 3.88797 4.82425L4.70748 5.29254L3.88797 5.76083C3.73187 5.68278 3.57577 5.64376 3.41968 5.76083C3.22455 5.8779 3.14651 6.15108 3.26358 6.38522C3.38065 6.58034 3.65382 6.65839 3.88797 6.54132C4.04407 6.46327 4.12212 6.30717 4.12212 6.11205L4.94163 5.64376V6.58034C4.78553 6.65839 4.70748 6.81449 4.70748 6.97059C4.70748 7.20473 4.9026 7.39986 5.13675 7.39986C5.3709 7.39986 5.56602 7.20473 5.56602 6.97059C5.56602 6.77547 5.44895 6.65839 5.33187 6.58034V5.64376L6.15138 6.11205C6.15138 6.26815 6.22943 6.42425 6.38553 6.54132C6.58065 6.65839 6.89285 6.58034 7.00992 6.38522C7.08797 6.11205 7.00992 5.83888 6.77577 5.72181ZM1 1H17V17H1V1Z" stroke="white" stroke-width="0.9002" stroke-miterlimit="10"/>
</svg>
