<svg width="16" height="17" viewBox="0 0 16 17" fill="none" xmlns="http://www.w3.org/2000/svg">
<path d="M12.963 13.8176H10.0531L8.01617 16L5.94688 13.8176H3.03695V10.6998L1 8.51732L3.06928 6.30023V3.18245H5.97921L8.01617 1L10.0531 3.18245H12.963V6.30023L15 8.48268L12.963 10.6651V13.8176ZM6.14088 5.33025C5.49423 5.33025 4.97691 5.88453 4.97691 6.57737C4.97691 7.27021 5.49423 7.82448 6.14088 7.82448C6.78753 7.82448 7.30485 7.27021 7.30485 6.57737C7.30485 5.88453 6.78753 5.33025 6.14088 5.33025ZM4.68591 12.0508L11.3141 4.94919L4.68591 12.0508ZM9.89145 11.7044C10.5381 11.7044 11.0554 11.1501 11.0554 10.4573C11.0554 9.76443 10.5381 9.21016 9.89145 9.21016C9.2448 9.21016 8.72748 9.76443 8.72748 10.4573C8.72748 11.1501 9.2448 11.7044 9.89145 11.7044Z" stroke="white" stroke-miterlimit="10"/>
</svg>
