<svg width="16" height="18" viewBox="0 0 16 18" fill="none" xmlns="http://www.w3.org/2000/svg">
<path d="M11.6295 14.989L11.0051 13.765V4.67206H12.2538V13.765L11.6295 14.989Z" stroke="white" stroke-miterlimit="10"/>
<path d="M11.083 6.68304H12.2537" stroke="white" stroke-miterlimit="10"/>
<path d="M4.83936 11.4044H9.05374M5.46371 15.5137L6.43146 9.2186C6.04124 8.97379 5.77589 8.51914 5.77589 7.99455C5.77589 7.22515 6.3378 6.59565 7.02459 6.59565V4.58472V6.59565C7.71138 6.59565 8.2733 7.22515 8.2733 7.99455C8.2733 8.51914 8.00795 8.99127 7.61773 9.2186L8.58548 15.5137H5.46371Z" stroke="white" stroke-miterlimit="10"/>
<path d="M0.000488281 3.09836V14.8142" stroke="white" stroke-miterlimit="10"/>
<path d="M0.000488281 3.09836C0.000488281 1.94426 0.843366 1 1.87355 1V12.7158C0.843366 12.7158 0.000488281 13.6601 0.000488281 14.8142V14.9016C0.000488281 16.0557 0.843366 17 1.87355 17H14.985V3.01093H1.87355" stroke="white" stroke-miterlimit="10"/>
</svg>
