<svg width="16" height="17" viewBox="0 0 16 17" fill="none" xmlns="http://www.w3.org/2000/svg">
<path d="M6.1422 16V5.76608M8.37773 9.71345L6.1422 10.883M6.1422 8.51462L3.73901 7.16959M15.0005 2.25731L13.7989 1L9.10428 5.91228M15.0005 3.5731L13.7989 2.31579L9.9426 6.38012M8.48951 12.3743V15.7368H14.9725M10.0544 11.7018V12.6667H13.0165V9.59649H11.2001M9.04839 5.91228C9.27195 5.47368 9.38372 5.00585 9.38372 4.47953C9.38372 2.81287 8.09829 1.46784 6.50548 1.46784C4.91266 1.46784 3.62723 2.81287 3.62723 4.47953C3.62723 4.53801 3.62723 4.59649 3.62723 4.68421C2.09031 5.18129 1.00049 6.67251 1.00049 8.45614C1.00049 10.6491 2.70508 12.4327 4.80089 12.4327C5.38771 12.4327 7.45558 12.4327 8.01446 12.4327C9.77494 12.4327 11.228 10.9415 11.228 9.07018C11.2001 7.60819 10.3059 6.38012 9.04839 5.91228Z" stroke="white" stroke-miterlimit="10"/>
</svg>
