<svg width="18" height="15" viewBox="0 0 18 15" fill="none" xmlns="http://www.w3.org/2000/svg">
<path d="M17 9.04762H13.3429C12.7714 7.68571 11.1714 6.57143 9 6.57143C6.82857 6.57143 5.34286 7.68571 4.65714 9.04762H1V11.5238H4.65714C5.22857 12.8857 6.82857 14 9 14C11.1714 14 12.6571 12.8857 13.3429 11.5238H17V9.04762Z" stroke="white" stroke-linejoin="round"/>
<path d="M13 1.12381L11.1714 2.2381C10.8286 1.49524 10.0286 1 9 1C7.97143 1 7.17143 1.49524 6.82857 2.2381L5 1.12381V4.59048L6.82857 3.47619C7.17143 4.21905 7.97143 4.71429 9 4.71429C10.0286 4.71429 10.8286 4.21905 11.1714 3.47619L13 4.59048V1.12381Z" stroke="white" stroke-linejoin="round"/>
</svg>
