<svg width="16" height="16" viewBox="0 0 16 16" fill="none" xmlns="http://www.w3.org/2000/svg">
<path d="M12.4989 8.5177L12.0166 9.00869C11.4623 8.49029 10.7926 8.21547 10.0204 8.21547C9.44717 8.21547 8.91897 8.35746 8.45059 8.6503C7.98512 8.933 7.62368 9.33064 7.36679 9.82888L7.36675 9.82885L7.3636 9.83519C7.11417 10.3362 6.9956 10.8949 6.9956 11.5C6.9956 12.1051 7.11417 12.6638 7.3636 13.1648L7.36355 13.1648L7.36679 13.1711C7.6236 13.6692 7.98415 14.0696 8.44728 14.3601L8.44725 14.3601L8.45395 14.3642C8.92227 14.6477 9.44921 14.7845 10.0204 14.7845C10.7946 14.7845 11.4649 14.5056 12.0189 13.9812L12.5017 14.4727C12.2305 14.7565 11.9183 14.9817 11.5636 15.1509C11.0818 15.3807 10.5366 15.5 9.91899 15.5C9.19904 15.5 8.55902 15.3307 7.98732 14.9981C7.42085 14.6559 6.97237 14.1882 6.63858 13.5856C6.31423 12.9784 6.14706 12.287 6.14706 11.5C6.14706 10.7119 6.31466 10.025 6.63855 9.42684C6.97301 8.8148 7.42155 8.34808 7.98635 8.01491L7.98822 8.01379C8.5594 7.67349 9.20258 7.5 9.93026 7.5C10.548 7.5 11.0884 7.61937 11.5612 7.84795L11.5636 7.84909C11.9176 8.01793 12.2288 8.24009 12.4989 8.5177ZM0.5 2.5C0.5 1.36644 1.35771 0.5 2.35294 0.5C3.34817 0.5 4.20588 1.36644 4.20588 2.5V13.5C4.20588 14.6336 3.34817 15.5 2.35294 15.5C1.35771 15.5 0.5 14.6336 0.5 13.5V2.5ZM15.5 6C15.5 6.85742 14.853 7.5 14.1176 7.5C13.3823 7.5 12.7353 6.85742 12.7353 6C12.7353 5.14258 13.3823 4.5 14.1176 4.5C14.853 4.5 15.5 5.14258 15.5 6Z" stroke="white"/>
</svg>
