<svg width="17" height="17" viewBox="0 0 17 17" fill="none" xmlns="http://www.w3.org/2000/svg">
<path d="M14.18 1L14.4044 0.553178L13.68 0.1894V1H14.18ZM14.18 3.75641L14.4863 4.15164L14.68 4.00152V3.75641H14.18ZM10.82 3.75641H10.32V4.00152L10.5137 4.15164L10.82 3.75641ZM10.82 1H11.32V0.1894L10.5956 0.553178L10.82 1ZM5.5 7.6C5.5 7.32386 5.27614 7.1 5 7.1C4.72386 7.1 4.5 7.32386 4.5 7.6H5.5ZM4.5 12.4C4.5 12.6761 4.72386 12.9 5 12.9C5.27614 12.9 5.5 12.6761 5.5 12.4H4.5ZM2.6 9.5C2.32386 9.5 2.1 9.72386 2.1 10C2.1 10.2761 2.32386 10.5 2.6 10.5V9.5ZM7.4 10.5C7.67614 10.5 7.9 10.2761 7.9 10C7.9 9.72386 7.67614 9.5 7.4 9.5V10.5ZM15.125 5.9359C14.7927 5.5623 14.7927 5.56231 14.7927 5.56232C14.7927 5.56232 14.7927 5.56233 14.7927 5.56234C14.7926 5.56235 14.7926 5.56236 14.7926 5.56237C14.7926 5.5624 14.7926 5.56242 14.7925 5.56245C14.7925 5.5625 14.7924 5.56255 14.7924 5.5626C14.7923 5.5627 14.7921 5.5628 14.792 5.56291C14.7918 5.56312 14.7915 5.56335 14.7913 5.56359C14.7907 5.56407 14.7901 5.5646 14.7895 5.56518C14.7882 5.56634 14.7867 5.56771 14.785 5.56927C14.7816 5.57241 14.7773 5.57635 14.7722 5.58111L15.4576 6.30931C15.4591 6.30786 15.4599 6.30715 15.4599 6.30718C15.4599 6.30719 15.4596 6.30739 15.4592 6.30778C15.459 6.30797 15.4587 6.30821 15.4584 6.3085C15.4583 6.30864 15.4581 6.30879 15.4579 6.30896C15.4578 6.30904 15.4577 6.30913 15.4576 6.30922C15.4576 6.30926 15.4575 6.30931 15.4575 6.30935C15.4574 6.30938 15.4574 6.3094 15.4574 6.30942C15.4574 6.30943 15.4574 6.30945 15.4573 6.30946C15.4573 6.30946 15.4573 6.30947 15.4573 6.30947C15.4573 6.30948 15.4573 6.30949 15.125 5.9359ZM14.7722 5.58111C14.7538 5.59847 14.7248 5.62671 14.6875 5.66592L15.4123 6.35485C15.4361 6.3298 15.4519 6.31463 15.4576 6.30931L14.7722 5.58111ZM14.6875 5.66592C14.364 6.00621 13.4 7.19647 13.4 9.26923H14.4C14.4 7.53114 15.2031 6.57501 15.4123 6.35485L14.6875 5.66592ZM13.4 9.26923V14.7179H14.4V9.26923H13.4ZM13.4 14.7179C13.4 15.1064 13.0362 15.5 12.5 15.5V16.5C13.5038 16.5 14.4 15.7397 14.4 14.7179H13.4ZM12.5 15.5C11.9638 15.5 11.6 15.1064 11.6 14.7179H10.6C10.6 15.7397 11.4962 16.5 12.5 16.5V15.5ZM11.6 14.7179V9.26923H10.6V14.7179H11.6ZM11.6 9.26923C11.6 7.19647 10.636 6.00622 10.3125 5.66592L9.58769 6.35485C9.79694 6.57501 10.6 7.53114 10.6 9.26923H11.6ZM10.3125 5.66593C10.2752 5.62672 10.2462 5.59847 10.2278 5.58111L9.5424 6.30931C9.54805 6.31463 9.56387 6.32979 9.58768 6.35485L10.3125 5.66593ZM10.2278 5.58112C10.2227 5.57635 10.2184 5.5724 10.215 5.56927C10.2133 5.5677 10.2118 5.56633 10.2105 5.56517C10.2099 5.56459 10.2093 5.56406 10.2087 5.56358C10.2085 5.56334 10.2082 5.56311 10.208 5.5629C10.2079 5.56279 10.2077 5.56268 10.2076 5.56258C10.2076 5.56253 10.2075 5.56248 10.2075 5.56243C10.2074 5.56241 10.2074 5.56238 10.2074 5.56236C10.2074 5.56235 10.2073 5.56234 10.2073 5.56232C10.2073 5.56232 10.2073 5.56231 10.2073 5.56231C10.2073 5.5623 10.2073 5.56229 9.875 5.9359C9.54271 6.30951 9.5427 6.3095 9.54269 6.30949C9.54269 6.30949 9.54268 6.30948 9.54267 6.30947C9.54266 6.30946 9.54264 6.30945 9.54263 6.30944C9.5426 6.30941 9.54258 6.30939 9.54255 6.30937C9.5425 6.30932 9.54245 6.30928 9.5424 6.30923C9.5423 6.30914 9.5422 6.30906 9.54211 6.30897C9.54192 6.30881 9.54175 6.30865 9.54159 6.30851C9.54127 6.30822 9.541 6.30798 9.54079 6.30779C9.54036 6.3074 9.54014 6.3072 9.54012 6.30718C9.54008 6.30715 9.54086 6.30785 9.54239 6.3093L10.2278 5.58112ZM13.35 14.7179C13.35 14.4942 13.2651 14.2759 13.0914 14.1168C12.9218 13.9615 12.7061 13.8974 12.5 13.8974V14.8974C12.5039 14.8974 12.4632 14.8975 12.4161 14.8543C12.3649 14.8075 12.35 14.7494 12.35 14.7179H13.35ZM12.5 13.8974C12.2939 13.8974 12.0782 13.9615 11.9086 14.1168C11.7349 14.2759 11.65 14.4942 11.65 14.7179H12.65C12.65 14.7494 12.6351 14.8075 12.5839 14.8543C12.5368 14.8975 12.4961 14.8974 12.5 14.8974V13.8974ZM11.65 14.7179C11.65 14.9417 11.7349 15.16 11.9086 15.3191C12.0782 15.4744 12.2939 15.5385 12.5 15.5385V14.5385C12.4961 14.5385 12.5368 14.5384 12.5839 14.5816C12.6351 14.6284 12.65 14.6865 12.65 14.7179H11.65ZM12.5 15.5385C12.7061 15.5385 12.9218 15.4744 13.0914 15.3191C13.2651 15.16 13.35 14.9417 13.35 14.7179H12.35C12.35 14.6865 12.3649 14.6284 12.4161 14.5816C12.4632 14.5384 12.5039 14.5385 12.5 14.5385V15.5385ZM8.5 3.82051C8.5 4.7755 8.89435 5.64236 9.5263 6.29345L10.2439 5.59697C9.77586 5.11477 9.5 4.49177 9.5 3.82051H8.5ZM9.5263 6.29345C9.55082 6.31872 9.57571 6.34367 9.60095 6.36829L10.2993 5.65249C10.2805 5.6342 10.262 5.6157 10.2439 5.59697L9.5263 6.29345ZM9.60095 6.36829C10.3341 7.08348 11.3671 7.52564 12.5 7.52564V6.52564C11.6277 6.52564 10.8454 6.1853 10.2993 5.65249L9.60095 6.36829ZM12.5 7.52564C13.6329 7.52564 14.6659 7.08348 15.3991 6.36829L14.7007 5.65249C14.1546 6.1853 13.3723 6.52564 12.5 6.52564V7.52564ZM15.399 6.36829C15.4243 6.34367 15.4492 6.31872 15.4737 6.29345L14.7561 5.59697C14.738 5.6157 14.7195 5.6342 14.7008 5.65248L15.399 6.36829ZM15.4737 6.29345C16.1057 5.64236 16.5 4.7755 16.5 3.82051H15.5C15.5 4.49177 15.2241 5.11477 14.7561 5.59697L15.4737 6.29345ZM16.5 3.82051C16.5 2.39069 15.637 1.17216 14.4044 0.553178L13.9556 1.44682C14.893 1.91759 15.5 2.81444 15.5 3.82051H16.5ZM13.68 1V3.75641H14.68V1H13.68ZM13.8737 3.36118C13.5152 3.63898 13.0308 3.80128 12.5 3.80128V4.80128C13.2292 4.80128 13.9348 4.57897 14.4863 4.15164L13.8737 3.36118ZM12.5 3.80128C11.9692 3.80128 11.4848 3.63898 11.1263 3.36118L10.5137 4.15164C11.0652 4.57897 11.7708 4.80128 12.5 4.80128V3.80128ZM11.32 3.75641V1H10.32V3.75641H11.32ZM10.5956 0.553178C9.36304 1.17216 8.5 2.39069 8.5 3.82051H9.5C9.5 2.81444 10.107 1.91759 11.0444 1.44682L10.5956 0.553178ZM8.5 10C8.5 11.933 6.933 13.5 5 13.5V14.5C7.48528 14.5 9.5 12.4853 9.5 10H8.5ZM5 13.5C3.067 13.5 1.5 11.933 1.5 10H0.5C0.5 12.4853 2.51472 14.5 5 14.5V13.5ZM1.5 10C1.5 8.067 3.067 6.5 5 6.5V5.5C2.51472 5.5 0.5 7.51472 0.5 10H1.5ZM5 6.5C6.933 6.5 8.5 8.067 8.5 10H9.5C9.5 7.51472 7.48528 5.5 5 5.5V6.5ZM4.5 7.6V12.4H5.5V7.6H4.5ZM2.6 10.5H7.4V9.5H2.6V10.5Z" fill="white"/>
</svg>
