<svg width="14" height="10" viewBox="0 0 14 10" fill="none" xmlns="http://www.w3.org/2000/svg">
<path d="M3.83567e-07 9.26213L3.25036e-07 7.95787C3.13827e-07 7.70812 0.135635 7.48611 0.325523 7.34736L3.98765 4.98859L0.325523 2.62981C0.108508 2.49106 6.97393e-08 2.26906 5.85311e-08 2.01931L0 0.715044C-2.61523e-08 0.132288 0.623918 -0.200714 1.08507 0.132289L7.16149 4.40583C7.56839 4.68333 7.56839 5.29384 7.16149 5.59909L1.1122 9.87264C0.623918 10.2056 4.09719e-07 9.84489 3.83567e-07 9.26213Z" fill="white"/>
<path d="M7.46667 9.26213V7.95787C7.46667 7.70812 7.58535 7.48611 7.7515 7.34736L10.9559 4.98859L7.7515 2.62981C7.56161 2.49106 7.46666 2.26906 7.46666 2.01931V0.715044C7.46666 0.132288 8.01259 -0.200714 8.41611 0.132289L13.733 4.40583C14.089 4.68333 14.089 5.29384 13.733 5.59909L8.43984 9.87264C8.01259 10.2056 7.46667 9.84489 7.46667 9.26213Z" fill="white"/>
</svg>
