<svg width="27" height="25" viewBox="0 0 27 25" fill="none" xmlns="http://www.w3.org/2000/svg">
<path fill-rule="evenodd" clip-rule="evenodd" d="M4 23C4 24.1046 3.10457 25 2 25C0.895434 25 3.8147e-06 24.1046 3.8147e-06 23C3.8147e-06 21.8954 0.895434 21 2 21C3.10457 21 4 21.8954 4 23ZM11 23C11 24.1046 10.1046 25 9 25C7.89543 25 7 24.1046 7 23C7 21.8954 7.89543 21 9 21C10.1046 21 11 21.8954 11 23ZM11 11C11 11.5523 10.5523 12 10 12H1C0.447719 12 3.8147e-06 11.5523 3.8147e-06 11C3.8147e-06 10.4477 0.447719 10 1 10H10C10.5523 10 11 10.4477 11 11ZM15 4C15.5523 4 16 4.44772 16 5C16 5.55228 15.5523 6 15 6H1C0.447719 6 3.8147e-06 5.55228 3.8147e-06 5C3.8147e-06 4.44772 0.447719 4 1 4H15Z" fill="white"/>
<path fill-rule="evenodd" clip-rule="evenodd" d="M22.2 0.4C22.3889 0.148194 22.6852 0 23 0H26C26.5523 0 27 0.447715 27 1C27 1.55228 26.5523 2 26 2H23.5L11.8 17.6C11.6111 17.8518 11.3148 18 11 18H1C0.447715 18 0 17.5523 0 17C0 16.4477 0.447715 16 1 16H10.5L22.2 0.4Z" fill="white"/>
</svg>
