<svg width="35" height="35" viewBox="0 0 35 35" fill="none" xmlns="http://www.w3.org/2000/svg">
<path d="M23.648 3.57C23.648 5.18 23.648 6.65 23.648 8.4C22.7411 8.4 21.8343 8.47 20.9274 8.4C19.8811 8.33 19.4625 8.89 19.4625 9.87C19.4625 10.78 19.4625 11.62 19.4625 12.67C20.9274 12.67 22.2528 12.67 23.7875 12.67C23.5782 14.28 23.4387 15.75 23.2295 17.15C23.2295 17.36 22.7411 17.57 22.4621 17.57C21.5553 17.64 20.5786 17.57 19.5323 17.57C19.5323 22.26 19.5323 26.81 19.5323 31.5C17.579 31.5 15.7653 31.5 13.8121 31.5C13.8121 26.95 13.8121 22.33 13.8121 17.64C12.9053 17.57 12.0682 17.57 11.2311 17.5C11.2311 15.89 11.2311 14.35 11.2311 12.6C12.0682 12.6 12.8355 12.6 13.6726 12.6C13.7423 10.99 13.8121 9.45 13.9516 7.98C14.3004 5.53 15.8351 3.78 18.1371 3.57C19.8811 3.43 21.7645 3.57 23.648 3.57ZM35 6C35 2.68629 32.3137 0 29 0H6.10025C2.79464 0 0.111708 2.67367 0.100285 5.97927L0.0208055 28.9793C0.00932659 32.3011 2.69896 35 6.02077 35H29C32.3137 35 35 32.3137 35 29V6Z" fill="#002277"/>
</svg>
