<svg width="55" height="55" viewBox="0 0 55 55" fill="none" xmlns="http://www.w3.org/2000/svg">
<path fill-rule="evenodd" clip-rule="evenodd" d="M6 0C2.68629 0 0 2.68629 0 6V49C0 52.3137 2.68629 55 6 55H49C52.3137 55 55 52.3137 55 49V6C55 2.68629 52.3137 0 49 0H6ZM18 17C16.3431 17 15 18.3431 15 20V35.3333C15 36.2538 15.7462 37 16.6667 37H17.0985C17.7805 37 18.3333 37.5528 18.3333 38.2348C18.3333 39.5089 20.0287 39.9483 20.6475 38.8345L21.2257 37.7938C21.4979 37.3039 22.0143 37 22.5747 37H37C38.6569 37 40 35.6569 40 34V20C40 18.3431 38.6569 17 37 17H18Z" fill="white"/>
</svg>
