<svg width="55" height="55" viewBox="0 0 55 55" fill="none" xmlns="http://www.w3.org/2000/svg">
<path fill-rule="evenodd" clip-rule="evenodd" d="M6 0C2.68629 0 0 2.68629 0 6V49C0 52.3137 2.68629 55 6 55H49C52.3137 55 55 52.3137 55 49V6C55 2.68629 52.3137 0 49 0H6ZM15.6747 12.0438C14.0178 12.0438 12.6747 13.3869 12.6747 15.0438V39.1533C12.6747 40.8101 14.0178 42.1533 15.6747 42.1533H38.9239C40.5808 42.1533 41.9239 40.8101 41.9239 39.1533V15.0438C41.9239 13.3869 40.5808 12.0438 38.9239 12.0438H15.6747ZM24.3994 23.084C23.8471 23.084 23.3994 23.5318 23.3994 24.084V25.095C23.3994 25.6473 23.8471 26.095 24.3994 26.095H36.049C36.6013 26.095 37.049 25.6473 37.049 25.095V24.084C37.049 23.5318 36.6013 23.084 36.049 23.084H24.3994ZM36.049 29.1059C36.6013 29.1059 37.049 29.5536 37.049 30.1059V31.1169C37.049 31.6692 36.6013 32.1169 36.049 32.1169H24.3994C23.8471 32.1169 23.3994 31.6692 23.3994 31.1169V30.1059C23.3994 29.5536 23.8471 29.1059 24.3994 29.1059H36.049ZM24.3994 17.0621C23.8471 17.0621 23.3994 17.5099 23.3994 18.0621V19.0731C23.3994 19.6254 23.8471 20.0731 24.3994 20.0731H36.049C36.6013 20.0731 37.049 19.6254 37.049 19.0731V18.0621C37.049 17.5099 36.6013 17.0621 36.049 17.0621H24.3994ZM30.1992 35.1278C30.7515 35.1278 31.1992 35.5755 31.1992 36.1278V37.1388C31.1992 37.6911 30.7515 38.1388 30.1992 38.1388H24.3994C23.8471 38.1388 23.3994 37.6911 23.3994 37.1388V36.1278C23.3994 35.5755 23.8471 35.1278 24.3994 35.1278H30.1992ZM18.5496 23.084C17.9973 23.084 17.5496 23.5318 17.5496 24.084V25.095C17.5496 25.6473 17.9973 26.095 18.5496 26.095H19.4745C20.0268 26.095 20.4745 25.6473 20.4745 25.095V24.084C20.4745 23.5318 20.0268 23.084 19.4745 23.084H18.5496ZM19.4745 29.1059C20.0268 29.1059 20.4745 29.5536 20.4745 30.1059V31.1169C20.4745 31.6692 20.0268 32.1169 19.4745 32.1169H18.5496C17.9973 32.1169 17.5496 31.6692 17.5496 31.1169V30.1059C17.5496 29.5536 17.9973 29.1059 18.5496 29.1059H19.4745ZM18.5496 17.0621C17.9973 17.0621 17.5496 17.5099 17.5496 18.0621V19.0731C17.5496 19.6254 17.9973 20.0731 18.5496 20.0731H19.4745C20.0268 20.0731 20.4745 19.6254 20.4745 19.0731V18.0621C20.4745 17.5099 20.0268 17.0621 19.4745 17.0621H18.5496ZM19.4745 35.1278C20.0268 35.1278 20.4745 35.5755 20.4745 36.1278V37.1388C20.4745 37.6911 20.0268 38.1388 19.4745 38.1388H18.5496C17.9973 38.1388 17.5496 37.6911 17.5496 37.1388V36.1278C17.5496 35.5755 17.9973 35.1278 18.5496 35.1278H19.4745Z" fill="white"/>
</svg>
