<svg width="55" height="55" viewBox="0 0 55 55" fill="none" xmlns="http://www.w3.org/2000/svg">
<path fill-rule="evenodd" clip-rule="evenodd" d="M6 0C2.68629 0 0 2.68629 0 6V49C0 52.3137 2.68629 55 6 55H49C52.3137 55 55 52.3137 55 49V6C55 2.68629 52.3137 0 49 0H6ZM12.6747 18.0547C12.6747 16.3979 14.0178 15.0547 15.6747 15.0547H34.049C35.7059 15.0547 37.049 16.3979 37.049 18.0547V32.8998C37.049 34.5566 35.7059 35.8998 34.049 35.8998H20.0851C19.5256 35.8998 19.0126 36.2113 18.7546 36.7078L18.2421 37.6939C17.6494 38.8345 15.9246 38.4131 15.9246 37.1277C15.9246 36.4495 15.3748 35.8998 14.6967 35.8998H14.2996C13.4022 35.8998 12.6747 35.1723 12.6747 34.2748V18.0547ZM21.1965 37.5382C21.5456 38.8081 22.7085 39.741 24.0894 39.741H34.7636C35.2366 39.741 35.6832 39.9592 35.9739 40.3323L36.8367 41.4396C37.452 42.2294 38.7185 41.7943 38.7185 40.793V40.6152C38.7185 40.1324 39.1099 39.741 39.5927 39.741C40.8801 39.741 41.9238 38.6974 41.9238 37.4099V24.2289C41.9238 22.572 40.5807 21.2289 38.9238 21.2289H38.5674C38.6655 21.5254 38.7186 21.8424 38.7186 22.1719V34.6841C38.7186 36.3409 37.3754 37.684 35.7186 37.684H24.6153H23.2916H22.0511C21.7514 37.684 21.4638 37.6327 21.1965 37.5382Z" fill="white"/>
</svg>
