<svg width="55" height="55" viewBox="0 0 55 55" fill="none" xmlns="http://www.w3.org/2000/svg">
<path fill-rule="evenodd" clip-rule="evenodd" d="M6 0C2.68629 0 0 2.68629 0 6V49C0 52.3137 2.68629 55 6 55H49C52.3137 55 55 52.3137 55 49V6C55 2.68629 52.3137 0 49 0H6ZM19.9749 12.8025L21.3724 14.2357C23.181 16.0904 23.181 19.0411 21.3724 20.9801L20.4682 21.9074C19.5639 22.8348 19.3995 24.2679 20.0571 25.3639C20.9614 26.7971 22.3589 28.8204 24.003 30.5065C25.6471 32.1925 27.6201 33.6257 29.0176 34.5531C30.0863 35.2275 31.4838 35.0589 32.388 34.1315L33.2923 33.1199C35.1008 31.2652 37.978 31.2652 39.7865 33.1199L41.184 34.6374C42.1705 35.7333 42.1705 37.4194 41.184 38.4311L39.8688 39.7799C37.3204 42.3934 33.2923 42.8992 30.1685 41.0445C27.5379 39.4427 24.2496 37.1665 21.0436 33.8786C17.7554 30.5065 15.3714 26.8814 13.7273 24.015C11.9188 20.8114 12.4942 16.7648 15.0426 14.1514L16.2757 12.8025C17.3443 11.7909 18.9885 11.7909 19.9749 12.8025Z" fill="white"/>
</svg>
