<svg width="35" height="35" viewBox="0 0 35 35" fill="none" xmlns="http://www.w3.org/2000/svg">
<path d="M17.5 23.38C14.28 23.38 11.62 20.72 11.62 17.5C11.62 14.28 14.28 11.62 17.5 11.62C20.72 11.62 23.38 14.28 23.38 17.5C23.38 20.72 20.72 23.38 17.5 23.38ZM17.5 14.28C15.75 14.28 14.28 15.75 14.28 17.5C14.28 19.25 15.75 20.72 17.5 20.72C19.25 20.72 20.72 19.25 20.72 17.5C20.72 15.75 19.25 14.28 17.5 14.28ZM25.34 30.8H9.72999C6.71999 30.8 4.27 28.35 4.27 25.34V9.66C4.27 6.65 6.71999 4.2 9.72999 4.2H25.34C28.35 4.2 30.8 6.65 30.8 9.66V25.27C30.8 28.35 28.35 30.8 25.34 30.8ZM9.65999 6.86C8.11999 6.86 6.85999 8.12 6.85999 9.66V25.27C6.85999 26.81 8.11999 28.07 9.65999 28.07H25.27C26.81 28.07 28.07 26.81 28.07 25.27V9.66C28.07 8.12 26.81 6.86 25.27 6.86H9.65999ZM26.25 10.78C26.25 11.83 25.41 12.67 24.36 12.67C23.31 12.67 22.47 11.83 22.47 10.78C22.47 9.73 23.31 8.89 24.36 8.89C25.41 8.89 26.25 9.73 26.25 10.78ZM35 6C35 2.68629 32.3137 0 29 0H6C2.68629 0 0 2.68629 0 6L0 29C0 32.3137 2.68629 35 6 35H29C32.3137 35 35 32.3137 35 29V6Z" fill="#002277"/>
</svg>
