<svg width="110" height="39" viewBox="0 0 110 39" fill="none" xmlns="http://www.w3.org/2000/svg">
<path d="M108.321 33.067L108.032 32.2616H107.916C107.742 32.5492 107.453 32.7793 107.105 32.9519C106.758 33.1245 106.353 33.182 105.947 33.182C105.253 33.182 104.674 32.9519 104.268 32.5492C103.863 32.1466 103.689 31.5713 103.689 30.8235V26.6243H105.947V30.1333C105.947 30.5359 106.005 30.8811 106.121 31.1112C106.237 31.3413 106.411 31.4563 106.7 31.4563C107.105 31.4563 107.337 31.2837 107.511 30.9961C107.684 30.7085 107.742 30.1908 107.742 29.443V26.6243H110V33.067H108.321Z" fill="white"/>
<path d="M102.068 26.5093C102.242 26.5093 102.474 26.5093 102.647 26.5668H102.763L102.589 28.6952C102.416 28.6377 102.126 28.6377 101.837 28.6377C101.374 28.6377 100.968 28.7527 100.795 28.9828C100.563 29.2129 100.447 29.5005 100.447 29.9607V33.1245H98.1895V26.6243H99.8684L100.216 27.6597H100.332C100.505 27.3146 100.795 27.027 101.142 26.8544C101.432 26.6243 101.779 26.5093 102.068 26.5093Z" fill="white"/>
<path d="M94.3682 32.1466C94.3682 31.8014 94.484 31.5138 94.6576 31.3413C94.8892 31.1687 95.1787 31.0536 95.584 31.0536C95.9892 31.0536 96.2787 31.1687 96.4524 31.3413C96.684 31.5138 96.7419 31.8014 96.7419 32.1466C96.7419 32.4917 96.6261 32.7793 96.4524 32.9519C96.2208 33.1245 95.9313 33.2395 95.584 33.2395C95.1787 33.2395 94.8892 33.1245 94.7155 32.9519C94.484 32.7793 94.3682 32.4917 94.3682 32.1466Z" fill="white"/>
<path d="M93.558 27.7748C93.3265 27.3146 92.9791 26.9119 92.5159 26.5668C92.0528 26.2217 91.358 25.8765 90.3738 25.4739C89.2738 25.0137 88.5791 24.726 88.2317 24.496C87.8844 24.2659 87.7686 23.9782 87.7686 23.6906C87.7686 23.1154 88.2896 22.8853 89.3317 22.8853C89.8528 22.8853 90.7212 23.0579 91.2423 23.2304C91.4738 23.288 91.7054 23.403 91.9949 23.518C92.458 23.6906 92.9212 23.4605 93.0949 23.0579L93.4422 22.195C93.6159 21.7348 93.3844 21.2171 92.9212 21.0445C91.7633 20.6419 90.5475 20.4118 89.3317 20.4118C87.7107 20.4118 86.4949 20.6994 85.6265 21.3322C84.758 21.9649 84.3528 22.8278 84.3528 23.9207C84.3528 24.5535 84.4686 25.1287 84.6422 25.5889C84.8738 26.0491 85.1633 26.4518 85.6265 26.7969C86.0896 27.142 86.7844 27.4872 87.7686 27.8898C88.4633 28.1775 88.9844 28.4076 89.3896 28.6377C89.7949 28.8677 90.0844 29.0403 90.258 29.2129C90.4317 29.3855 90.4896 29.6156 90.4896 29.8456C90.4896 30.5359 89.8528 30.9386 88.637 30.9386L77.9265 30.8811C76.9422 30.8811 76.1896 30.5935 75.6686 30.0757C75.1475 29.558 74.858 28.7527 74.8001 27.7748H82.037C82.5001 27.7748 82.9054 27.3721 82.9054 26.9119V26.1066C82.9054 24.3234 82.3844 22.9428 81.4001 21.9074C80.4159 20.872 79.0265 20.4118 77.2317 20.4118C75.3791 20.4118 73.9317 20.987 72.8317 22.1375C71.7896 23.288 71.2686 24.8986 71.2686 27.027C71.2686 29.0403 71.8475 30.651 73.0054 31.7439C74.1633 32.8369 75.7265 33.4121 77.7528 33.4121H88.5212C90.3159 33.4121 91.6475 33.067 92.5738 32.3767C93.5001 31.6864 93.9054 30.7085 93.9054 29.443C93.9054 28.7527 93.7896 28.235 93.558 27.7748ZM75.5528 23.4605C75.958 23.0003 76.537 22.7702 77.2896 22.7702C78.0422 22.7702 78.6212 23.0003 79.0265 23.4605C79.4317 23.9207 79.6633 24.5535 79.6633 25.4163H74.858C74.858 24.5535 75.0896 23.9207 75.5528 23.4605Z" fill="white"/>
<path d="M60.5003 33.067H62.1792C62.6424 33.067 63.0476 32.6643 63.0476 32.2041V16.5002C63.0476 16.04 62.6424 15.6373 62.1792 15.6373H60.5003C60.0371 15.6373 59.6318 16.04 59.6318 16.5002V32.2041C59.6318 32.7218 60.0371 33.067 60.5003 33.067Z" fill="white"/>
<path d="M66.637 33.067H68.3159C68.7791 33.067 69.1843 32.6643 69.1843 32.2041V16.5002C69.1843 16.04 68.7791 15.6373 68.3159 15.6373H66.637C66.1738 15.6373 65.7686 16.04 65.7686 16.5002V32.2041C65.7686 32.7218 66.1738 33.067 66.637 33.067Z" fill="white"/>
<path d="M55.6373 21.6773C54.7109 20.9295 53.4373 20.5843 51.7583 20.5843C50.7741 20.5843 48.053 20.5843 45.6794 20.5843H42.7267C42.3794 20.5843 42.032 20.8144 41.9162 21.1596L39.7162 27.7173C39.4267 28.6952 39.253 29.558 39.1951 30.3058H39.1372C39.0794 29.5005 38.9057 28.6376 38.6162 27.7173L36.3583 21.1596C36.2425 20.8144 35.8951 20.5843 35.5478 20.5843H33.8109C33.1741 20.5843 32.7688 21.2171 33.0004 21.7348L37.1688 32.5492C37.2846 32.8944 37.632 33.1245 37.9794 33.1245H40.2951C40.6425 33.1245 40.9899 32.8944 41.1057 32.5492L44.753 23.0003C46.0846 23.0003 50.7741 23.0003 51.6425 23.0003C52.9741 23.0003 53.6109 23.6331 53.6109 24.8986V25.3013L51.4109 25.3588C49.5004 25.4163 48.1109 25.7615 47.1846 26.3942C46.2583 27.027 45.7951 28.0049 45.7951 29.3279C45.7951 30.5934 46.1425 31.5713 46.8373 32.2616C47.532 32.9519 48.4583 33.2971 49.6741 33.2971C50.6583 33.2971 51.4688 33.182 52.0478 32.8944C52.6846 32.6068 53.2636 32.0891 53.8425 31.3988H53.9583L54.4215 32.5492C54.5373 32.8944 54.8846 33.1245 55.232 33.1245H57.0267V25.0137C56.9688 23.518 56.5636 22.3676 55.6373 21.6773ZM53.553 28.2925C53.553 29.0403 53.3215 29.6731 52.8583 30.1333C52.3952 30.5934 51.7583 30.8235 50.9478 30.8235C49.8478 30.8235 49.2688 30.3634 49.2688 29.3854C49.2688 28.6952 49.5004 28.235 50.0215 27.8898C50.4846 27.5447 51.2373 27.3721 52.2794 27.3721L53.6109 27.3146V28.2925H53.553Z" fill="white"/>
<path d="M5.44211 16.8453H8.16316C8.68421 16.8453 9.14737 17.1329 9.43685 17.5356L14.3579 25.3013L19.279 17.5356C19.5684 17.0754 20.0316 16.8453 20.5526 16.8453H23.2737C24.4895 16.8453 25.1842 18.1684 24.4895 19.1463L15.5737 32.0315C14.9947 32.8944 13.7211 32.8944 13.0842 32.0315L4.16842 19.2038C3.47369 18.1684 4.22632 16.8453 5.44211 16.8453ZM28.6 34.1599V14.2567C28.6 11.8983 26.6895 10 24.3158 10H4.28421C1.91053 10 0 11.8983 0 14.2567V34.1599C0 36.5184 1.91053 38.4167 4.28421 38.4167H24.3158C26.6895 38.4167 28.6 36.5184 28.6 34.1599Z" fill="white"/>
<path d="M18.3032 0L14.1516 6.41667L10 0H18.3032Z" fill="white"/>
</svg>
