<svg width="35" height="35" viewBox="0 0 35 35" fill="none" xmlns="http://www.w3.org/2000/svg">
<path d="M17.64 17.92C13.93 17.92 10.92 14.91 10.92 11.27C10.92 7.56 13.93 4.62 17.64 4.62C21.35 4.62 24.36 7.63 24.36 11.27C24.36 14.91 21.35 17.92 17.64 17.92ZM17.64 8.33C16.03 8.33 14.7 9.66 14.7 11.27C14.7 12.88 16.03 14.21 17.64 14.21C19.25 14.21 20.58 12.88 20.58 11.27C20.58 9.59 19.32 8.33 17.64 8.33ZM20.44 23.38C20.65 23.59 20.86 23.8 21 23.94C22.05 24.99 23.1 25.97 24.08 27.02C25.34 28.28 24.43 29.82 23.45 30.31C22.68 30.66 21.7 30.45 21.07 29.82C20.02 28.77 18.97 27.72 17.92 26.67C17.78 26.53 17.64 26.46 17.5 26.32C16.73 27.09 16.03 27.79 15.26 28.49C14.77 28.98 14.28 29.4 13.86 29.89C13.02 30.73 11.13 30.66 10.5 29.33C10.15 28.56 10.22 27.65 10.92 26.95C11.97 25.9 13.09 24.85 14.14 23.8C14.28 23.66 14.49 23.59 14.63 23.52C13.37 22.96 12.25 22.47 11.13 21.98C10.29 21.56 9.65999 20.93 9.72999 19.95C9.86999 18.27 11.48 17.43 12.88 18.2C14.21 18.97 15.68 19.46 17.22 19.53C18.9 19.6 20.51 19.11 21.91 18.2C23.03 17.5 24.43 17.92 24.92 19.18C25.34 20.16 25.13 21.21 24.15 21.7C23.03 22.26 21.84 22.75 20.72 23.24C20.65 23.24 20.58 23.31 20.44 23.38ZM35 6C35 2.68629 32.3137 0 29 0H6C2.68629 0 0 2.68629 0 6L0 29C0 32.3137 2.68629 35 6 35H29C32.3137 35 35 32.3137 35 29V6Z" fill="#002277"/>
</svg>
