<svg width="18" height="22" viewBox="0 0 18 22" fill="none" xmlns="http://www.w3.org/2000/svg">
<path fill-rule="evenodd" clip-rule="evenodd" d="M8.58537 15.0244C7.75847 15.0244 6.93626 15.1973 6.16447 15.5369C5.39229 15.8768 4.68192 16.3787 4.07756 17.0208C3.47294 17.6632 2.98696 18.4328 2.65327 19.2888C2.31953 20.1449 2.14634 21.0665 2.14634 22H0C0 20.8021 0.222068 19.6159 0.653522 18.5092C1.08498 17.4025 1.71737 16.3969 2.5146 15.5498C3.31183 14.7028 4.25827 14.0308 5.29989 13.5724C6.34152 13.114 7.45792 12.8781 8.58537 12.8781C9.71281 12.8781 10.8292 13.114 11.8708 13.5724C12.9125 14.0308 13.8589 14.7028 14.6561 15.5498C15.4534 16.3969 16.0858 17.4025 16.5172 18.5092C16.9487 19.6159 17.1707 20.8021 17.1707 22H15.0244C15.0244 21.0665 14.8512 20.1449 14.5175 19.2888C14.1838 18.4328 13.6978 17.6632 13.0932 17.0208C12.4888 16.3787 11.7784 15.8768 11.0063 15.5369C10.2345 15.1973 9.41226 15.0244 8.58537 15.0244Z" fill="white"/>
<path fill-rule="evenodd" clip-rule="evenodd" d="M8.58551 10.7317C10.9563 10.7317 12.8782 8.80981 12.8782 6.43902C12.8782 4.06824 10.9563 2.14634 8.58551 2.14634C6.21473 2.14634 4.29283 4.06824 4.29283 6.43902C4.29283 8.80981 6.21473 10.7317 8.58551 10.7317ZM8.58551 12.878C12.1417 12.878 15.0245 9.9952 15.0245 6.43902C15.0245 2.88285 12.1417 0 8.58551 0C5.02933 0 2.14648 2.88285 2.14648 6.43902C2.14648 9.9952 5.02933 12.878 8.58551 12.878Z" fill="white"/>
</svg>
