<svg width="64" height="64" viewBox="0 0 64 64" fill="none" xmlns="http://www.w3.org/2000/svg">
<rect width="64" height="64" rx="10" fill="#FF0000"/>
<path d="M47 47H38L31.7 53.3L25.3 47H16.3V38L10 31.7L16.4 25.3V16.3H25.4L31.7 10L38 16.3H47V25.3L53.3 31.6L47 37.9V47ZM25.9 22.5C23.9 22.5 22.3 24.1 22.3 26.1C22.3 28.1 23.9 29.7 25.9 29.7C27.9 29.7 29.5 28.1 29.5 26.1C29.5 24.1 27.9 22.5 25.9 22.5ZM21.4 41.9L41.9 21.4L21.4 41.9ZM37.5 40.9C39.5 40.9 41.1 39.3 41.1 37.3C41.1 35.3 39.5 33.7 37.5 33.7C35.5 33.7 33.9 35.3 33.9 37.3C33.9 39.3 35.5 40.9 37.5 40.9Z" stroke="white" stroke-miterlimit="10"/>
</svg>
