<svg width="64" height="64" viewBox="0 0 64 64" fill="none" xmlns="http://www.w3.org/2000/svg">
<rect width="64" height="64" rx="10" fill="#0E6D8C"/>
<path d="M26.7924 56V25.9805M33.6587 37.5595L26.7924 40.9903M26.7924 34.0429L19.4112 30.0975M54 15.6881L50.3094 12L35.8902 26.4094M54 19.5478L50.3094 15.8596L38.4651 27.7817M34.002 45.3645V55.2281H53.9142M38.8084 43.3918V46.2222H47.9062V37.2164H42.3273M35.7186 26.4094C36.4052 25.1228 36.7485 23.7505 36.7485 22.2066C36.7485 17.3177 32.8004 13.3723 27.9082 13.3723C23.016 13.3723 19.0679 17.3177 19.0679 22.2066C19.0679 22.3782 19.0679 22.5497 19.0679 22.807C14.3473 24.2651 11 28.6394 11 33.8713C11 40.3041 16.2355 45.5361 22.6727 45.5361C24.4751 45.5361 30.8263 45.5361 32.5429 45.5361C37.9501 45.5361 42.4132 41.1618 42.4132 35.6725C42.3273 31.384 39.5808 27.7817 35.7186 26.4094Z" stroke="white" stroke-miterlimit="10"/>
</svg>
