<svg width="64" height="64" viewBox="0 0 64 64" fill="none" xmlns="http://www.w3.org/2000/svg">
<rect width="64" height="64" rx="10" fill="#130ABF"/>
<path d="M32.0674 33.8C32.0674 33.8 38.0674 29.8 38.6674 31.7C39.2674 33.5 32.0674 33.8 32.0674 33.8ZM32.0674 33.8C32.0674 33.8 34.5674 40.6 36.1674 39.4C37.7674 38.2 32.0674 33.8 32.0674 33.8ZM32.0674 33.8C32.0674 33.8 26.3674 38.2 27.9674 39.4C29.5674 40.5 32.0674 33.8 32.0674 33.8ZM32.0674 33.8C32.0674 33.8 26.0674 29.8 25.4674 31.7C24.8674 33.5 32.0674 33.8 32.0674 33.8ZM32.0674 33.8C32.0674 33.8 34.0674 26.9 32.0674 26.9C30.0674 26.9 32.0674 33.8 32.0674 33.8ZM32.0674 50C32.0674 50 39.8674 56.3 45.4674 52.2C51.0674 48.1 47.5674 38.8 47.5674 38.8C47.5674 38.8 55.9674 33.3 53.7674 26.8C51.5674 20.1 41.5674 20.6 41.5674 20.6C41.5674 20.6 38.9674 11 32.0674 11C25.1674 11 22.5674 20.6 22.5674 20.6C22.5674 20.6 12.5674 20.1 10.3674 26.7C8.16736 33.3 16.5674 38.7 16.5674 38.7C16.5674 38.7 12.9674 48 18.6674 52.1C24.3674 56.2 32.0674 50 32.0674 50Z" stroke="white" stroke-miterlimit="10"/>
</svg>
