<svg width="64" height="64" viewBox="0 0 64 64" fill="none" xmlns="http://www.w3.org/2000/svg">
<rect width="64" height="64" rx="10" fill="#18388A"/>
<path d="M32.5 25.1C32.5 25.1 29 28.5 29 35.5C29 43.5 29 52.5 29 52.5C29 54.7 27.2 56.5 25 56.5C22.8 56.5 21 54.7 21 52.5C21 52.5 21 42.5 21 35.5C21 28.5 17.5 25.1 17.5 25.1M40.5 52.2H49.1M45.1 13C42.7 13 44 8 44 8H45.1H46.2C46.2 8 47.5 13 45.1 13ZM45.1 13V32M26 52.5C26 51.9 25.6 51.5 25 51.5C24.4 51.5 24 51.9 24 52.5C24 53.1 24.4 53.5 25 53.5C25.6 53.5 26 53.1 26 52.5ZM15 18.5C15 24 19.5 28.5 25 28.5C30.5 28.5 35 24 35 18.5C35 14.7 32.9 11.4 29.8 9.7V18.3C28.5 19.4 26.8 20 25 20C23.2 20 21.5 19.4 20.2 18.3V9.7C17.1 11.4 15 14.7 15 18.5ZM45.1 56.5C47.5 56.5 49.4 54.6 49.4 52.2V38.3C48.2 38.3 47.3 37.3 47.3 36.2C47.3 35 48.3 34.1 49.4 34.1V32.1H40.8V34.1C42 34.1 42.9 35.1 42.9 36.2C42.9 37.4 41.9 38.3 40.8 38.3V52.2C40.9 54.6 42.8 56.5 45.1 56.5Z" stroke="white" stroke-miterlimit="10"/>
</svg>
