<svg width="64" height="64" viewBox="0 0 64 64" fill="none" xmlns="http://www.w3.org/2000/svg">
<rect width="64" height="64" rx="10" fill="#5099FF"/>
<path d="M32 15.3492C34.6087 15.3492 36.7826 17.5317 36.7826 20.1508V23.2063C36.7826 26.6984 38.3478 29.3175 40.3478 31.4127C42.1739 33.3333 43.3043 36.0397 43.3043 38.9206C43.3043 44.9444 38.4348 49.8333 32.4348 49.8333H31.5652C25.5652 49.8333 20.6957 44.9444 20.6957 38.9206C20.6957 36.0397 21.8261 33.3333 23.6522 31.4127C25.6522 29.3175 27.2174 26.6984 27.2174 23.2063V20.1508C27.2174 17.5317 29.3913 15.3492 32 15.3492ZM32 15.3492V4M32 24.1667V36.3016M27.2174 24.0794H36.7826M28.2609 36.3016H35.8261M12 38.9206H16.3478M47.6522 38.9206H52M17.8261 53.1508L20.8696 50.0952M43.0435 27.8333L46.087 24.7778M17.8261 24.6905L20.8696 27.746M43.0435 50.0079L46.087 53.0635M32 54.6349V59" stroke="white"/>
</svg>
