<svg width="64" height="64" viewBox="0 0 64 64" fill="none" xmlns="http://www.w3.org/2000/svg">
<rect width="64" height="64" rx="10" fill="#3B62C4"/>
<path d="M42.7218 46.7297L41.0723 43.7783V21.854H44.3712V43.7783L42.7218 46.7297Z" stroke="white" stroke-miterlimit="10"/>
<path d="M41.2783 26.7027H44.3711" stroke="white" stroke-miterlimit="10"/>
<path d="M24.7832 38.0865H35.9172M26.4327 47.9946L28.9894 32.8162C27.9585 32.226 27.2574 31.1297 27.2574 29.8649C27.2574 28.0097 28.742 26.4919 30.5564 26.4919V21.6432V26.4919C32.3708 26.4919 33.8554 28.0097 33.8554 29.8649C33.8554 31.1297 33.1543 32.2681 32.1234 32.8162L34.6801 47.9946H26.4327Z" stroke="white" stroke-miterlimit="10"/>
<path d="M12 18.0594V46.3081" stroke="white" stroke-miterlimit="10"/>
<path d="M12 18.0595C12 15.2768 14.2268 13 16.9485 13V41.2486C14.2268 41.2486 12 43.5254 12 46.3081V46.5189C12 49.3016 14.2268 51.5784 16.9485 51.5784H51.5876V17.8486H16.9485" stroke="white" stroke-miterlimit="10"/>
</svg>
