<svg width="64" height="64" viewBox="0 0 64 64" fill="none" xmlns="http://www.w3.org/2000/svg">
<rect width="64" height="64" rx="10" fill="#002C99"/>
<rect x="11.5" y="48.2826" width="11.7826" height="3.56522" stroke="white"/>
<rect x="25.1953" y="48.2826" width="12.6957" height="3.56522" stroke="white"/>
<rect x="18.8047" y="42.8043" width="12.6957" height="3.56522" stroke="white"/>
<rect x="33.4131" y="42.8043" width="12.6957" height="3.56522" stroke="white"/>
<mask id="path-6-inside-1" fill="white">
<path d="M52.9997 42.3043H47.5215V46.8695H52.9997V45.9565H48.4345V43.2174H52.9997V42.3043Z"/>
</mask>
<path d="M47.5215 42.3043V41.3043H46.5215V42.3043H47.5215ZM52.9997 42.3043H53.9997V41.3043H52.9997V42.3043ZM52.9997 46.8695V47.8695H53.9997V46.8695H52.9997ZM47.5215 46.8695H46.5215V47.8695H47.5215V46.8695ZM52.9997 45.9565H53.9997V44.9565H52.9997V45.9565ZM48.4345 45.9565H47.4345V46.9565H48.4345V45.9565ZM48.4345 43.2174V42.2174H47.4345V43.2174H48.4345ZM52.9997 43.2174V44.2174H53.9997V43.2174H52.9997ZM47.5215 43.3043H52.9997V41.3043H47.5215V43.3043ZM52.9997 45.8695H47.5215V47.8695H52.9997V45.8695ZM48.5215 46.8695V42.3043H46.5215V46.8695H48.5215ZM53.9997 46.8695V45.9565H51.9997V46.8695H53.9997ZM52.9997 44.9565H48.4345V46.9565H52.9997V44.9565ZM49.4345 45.9565V43.2174H47.4345V45.9565H49.4345ZM48.4345 44.2174H52.9997V42.2174H48.4345V44.2174ZM53.9997 43.2174V42.3043H51.9997V43.2174H53.9997Z" fill="white" mask="url(#path-6-inside-1)"/>
<mask id="path-8-inside-2" fill="white">
<path d="M11.0003 46.8696L17.3916 46.8696L17.3916 42.3043L11.0003 42.3044L11.0003 43.2174L16.4786 43.2174L16.4786 45.9565L11.0003 45.9565L11.0003 46.8696Z"/>
</mask>
<path d="M17.3916 46.8696L17.3916 47.8696L18.3916 47.8696L18.3916 46.8696L17.3916 46.8696ZM11.0003 46.8696L10.0003 46.8696L10.0003 47.8696L11.0003 47.8696L11.0003 46.8696ZM11.0003 42.3044L11.0003 41.3044L10.0003 41.3044L10.0003 42.3044L11.0003 42.3044ZM17.3916 42.3043L18.3916 42.3043L18.3916 41.3043L17.3916 41.3043L17.3916 42.3043ZM11.0003 43.2174L10.0003 43.2174L10.0003 44.2174L11.0003 44.2174L11.0003 43.2174ZM16.4786 43.2174L17.4786 43.2174L17.4786 42.2174L16.4786 42.2174L16.4786 43.2174ZM16.4786 45.9565L16.4786 46.9565L17.4786 46.9565L17.4786 45.9565L16.4786 45.9565ZM11.0003 45.9565L11.0003 44.9565L10.0003 44.9565L10.0003 45.9565L11.0003 45.9565ZM17.3916 45.8696L11.0003 45.8696L11.0003 47.8696L17.3916 47.8696L17.3916 45.8696ZM11.0003 43.3044L17.3916 43.3043L17.3916 41.3043L11.0003 41.3044L11.0003 43.3044ZM16.3916 42.3043L16.3916 46.8696L18.3916 46.8696L18.3916 42.3043L16.3916 42.3043ZM10.0003 42.3044L10.0003 43.2174L12.0003 43.2174L12.0003 42.3044L10.0003 42.3044ZM11.0003 44.2174L16.4786 44.2174L16.4786 42.2174L11.0003 42.2174L11.0003 44.2174ZM15.4786 43.2174L15.4786 45.9565L17.4786 45.9565L17.4786 43.2174L15.4786 43.2174ZM16.4786 44.9565L11.0003 44.9565L11.0003 46.9565L16.4786 46.9565L16.4786 44.9565ZM10.0003 45.9565L10.0003 46.8696L12.0003 46.8696L12.0003 45.9565L10.0003 45.9565Z" fill="white" mask="url(#path-8-inside-2)"/>
<rect x="18.8047" y="31.8478" width="12.6957" height="3.56522" stroke="white"/>
<rect x="33.4131" y="31.8478" width="12.6957" height="3.56522" stroke="white"/>
<mask id="path-12-inside-3" fill="white">
<path d="M11.0003 35.913L17.3916 35.913L17.3916 31.3478L11.0003 31.3478L11.0003 32.2609L16.4786 32.2609L16.4786 35L11.0003 35L11.0003 35.913Z"/>
</mask>
<path d="M17.3916 35.913L17.3916 36.913L18.3916 36.913L18.3916 35.913L17.3916 35.913ZM11.0003 35.913L10.0003 35.913L10.0003 36.913L11.0003 36.913L11.0003 35.913ZM11.0003 31.3478L11.0003 30.3478L10.0003 30.3478L10.0003 31.3478L11.0003 31.3478ZM17.3916 31.3478L18.3916 31.3478L18.3916 30.3478L17.3916 30.3478L17.3916 31.3478ZM11.0003 32.2609L10.0003 32.2609L10.0003 33.2609L11.0003 33.2609L11.0003 32.2609ZM16.4786 32.2609L17.4786 32.2609L17.4786 31.2609L16.4786 31.2609L16.4786 32.2609ZM16.4786 35L16.4786 36L17.4786 36L17.4786 35L16.4786 35ZM11.0003 35L11.0003 34L10.0003 34L10.0003 35L11.0003 35ZM17.3916 34.913L11.0003 34.913L11.0003 36.913L17.3916 36.913L17.3916 34.913ZM11.0003 32.3478L17.3916 32.3478L17.3916 30.3478L11.0003 30.3478L11.0003 32.3478ZM16.3916 31.3478L16.3916 35.913L18.3916 35.913L18.3916 31.3478L16.3916 31.3478ZM10.0003 31.3478L10.0003 32.2609L12.0003 32.2609L12.0003 31.3478L10.0003 31.3478ZM11.0003 33.2609L16.4786 33.2609L16.4786 31.2609L11.0003 31.2609L11.0003 33.2609ZM15.4786 32.2609L15.4786 35L17.4786 35L17.4786 32.2609L15.4786 32.2609ZM16.4786 34L11.0003 34L11.0003 36L16.4786 36L16.4786 34ZM10.0003 35L10.0003 35.913L12.0003 35.913L12.0003 35L10.0003 35Z" fill="white" mask="url(#path-12-inside-3)"/>
<mask id="path-14-inside-4" fill="white">
<path d="M11.0003 24.9565L17.3916 24.9565L17.3916 20.3913L11.0003 20.3913L11.0003 21.3044L16.4786 21.3044L16.4786 24.0435L11.0003 24.0435L11.0003 24.9565Z"/>
</mask>
<path d="M17.3916 24.9565L17.3916 25.9565L18.3916 25.9565L18.3916 24.9565L17.3916 24.9565ZM11.0003 24.9565L10.0003 24.9565L10.0003 25.9565L11.0003 25.9565L11.0003 24.9565ZM11.0003 20.3913L11.0003 19.3913L10.0003 19.3913L10.0003 20.3913L11.0003 20.3913ZM17.3916 20.3913L18.3916 20.3913L18.3916 19.3913L17.3916 19.3913L17.3916 20.3913ZM11.0003 21.3044L10.0003 21.3044L10.0003 22.3044L11.0003 22.3044L11.0003 21.3044ZM16.4786 21.3044L17.4786 21.3044L17.4786 20.3044L16.4786 20.3044L16.4786 21.3044ZM16.4786 24.0435L16.4786 25.0435L17.4786 25.0435L17.4786 24.0435L16.4786 24.0435ZM11.0003 24.0435L11.0003 23.0435L10.0003 23.0435L10.0003 24.0435L11.0003 24.0435ZM17.3916 23.9565L11.0003 23.9565L11.0003 25.9565L17.3916 25.9565L17.3916 23.9565ZM11.0003 21.3913L17.3916 21.3913L17.3916 19.3913L11.0003 19.3913L11.0003 21.3913ZM16.3916 20.3913L16.3916 24.9565L18.3916 24.9565L18.3916 20.3913L16.3916 20.3913ZM10.0003 20.3913L10.0003 21.3044L12.0003 21.3044L12.0003 20.3913L10.0003 20.3913ZM11.0003 22.3044L16.4786 22.3044L16.4786 20.3044L11.0003 20.3044L11.0003 22.3044ZM15.4786 21.3044L15.4786 24.0435L17.4786 24.0435L17.4786 21.3044L15.4786 21.3044ZM16.4786 23.0435L11.0003 23.0435L11.0003 25.0435L16.4786 25.0435L16.4786 23.0435ZM10.0003 24.0435L10.0003 24.9565L12.0003 24.9565L12.0003 24.0435L10.0003 24.0435Z" fill="white" mask="url(#path-14-inside-4)"/>
<rect x="0.620097" y="0.346653" width="12.9817" height="3.59004" transform="matrix(0.963514 -0.267657 0.27668 0.960962 37.4052 17.9218)" stroke="white"/>
<rect x="39.8047" y="48.2826" width="12.6957" height="3.56522" stroke="white"/>
<rect x="11.5" y="37.326" width="12.6957" height="3.56522" stroke="white"/>
<rect x="26.1084" y="37.326" width="12.6957" height="3.56522" stroke="white"/>
<rect x="11.5" y="26.3696" width="11.7826" height="3.56522" stroke="white"/>
<rect x="25.1953" y="26.3696" width="12.6957" height="3.56522" stroke="white"/>
<mask id="path-22-inside-5" fill="white">
<path d="M52.9997 31.3478H47.5215V35.9131H52.9997V35H48.4345V32.2609H52.9997V31.3478Z"/>
</mask>
<path d="M47.5215 31.3478V30.3478H46.5215V31.3478H47.5215ZM52.9997 31.3478H53.9997V30.3478H52.9997V31.3478ZM52.9997 35.9131V36.9131H53.9997V35.9131H52.9997ZM47.5215 35.9131H46.5215V36.9131H47.5215V35.9131ZM52.9997 35H53.9997V34H52.9997V35ZM48.4345 35H47.4345V36H48.4345V35ZM48.4345 32.2609V31.2609H47.4345V32.2609H48.4345ZM52.9997 32.2609V33.2609H53.9997V32.2609H52.9997ZM47.5215 32.3478H52.9997V30.3478H47.5215V32.3478ZM52.9997 34.9131H47.5215V36.9131H52.9997V34.9131ZM48.5215 35.9131V31.3478H46.5215V35.9131H48.5215ZM53.9997 35.9131V35H51.9997V35.9131H53.9997ZM52.9997 34H48.4345V36H52.9997V34ZM49.4345 35V32.2609H47.4345V35H49.4345ZM48.4345 33.2609H52.9997V31.2609H48.4345V33.2609ZM53.9997 32.2609V31.3478H51.9997V32.2609H53.9997Z" fill="white" mask="url(#path-22-inside-5)"/>
<rect x="40.7178" y="37.326" width="11.7826" height="3.56522" stroke="white"/>
</svg>
