<svg width="35" height="35" viewBox="0 0 35 35" fill="none" xmlns="http://www.w3.org/2000/svg">
<path d="M18.9 14.49C18.97 14.49 18.97 14.49 18.9 14.49C18.9 13.79 18.9 13.09 18.9 12.39C18.9 11.48 18.55 10.99 17.64 10.92C16.59 10.85 15.54 10.85 14.49 10.92C14 10.92 13.51 11.2 13.09 11.41C12.95 11.48 12.81 11.76 12.81 11.9C12.81 12.04 13.09 12.18 13.23 12.32C13.3 12.32 13.3 12.32 13.37 12.39C14 12.53 14.14 12.74 14.14 13.37C14.14 14 14.21 14.63 14.21 15.33C14.21 15.82 14.14 16.31 14.07 16.8C13.93 17.29 13.65 17.36 13.23 17.01C12.95 16.73 12.67 16.38 12.46 16.03C11.83 14.84 10.99 13.65 10.57 12.32C10.43 11.83 10.01 11.55 9.51997 11.48C8.46997 11.27 7.48997 11.27 6.43997 11.55C5.66997 11.69 5.38997 12.11 5.66997 12.88C6.01997 13.93 6.43997 15.05 6.99997 16.03C8.04997 17.99 9.51997 19.67 10.92 21.42C11.97 22.75 13.37 23.45 14.84 24.01C14.98 24.08 15.19 24.08 15.33 24.15C16.17 24.15 16.94 24.15 17.78 24.15C18.27 24.15 18.62 23.87 18.69 23.38C18.76 23.03 18.76 22.68 18.76 22.33C18.76 22.05 18.83 21.84 18.9 21.56C19.04 21.14 19.39 21.07 19.74 21.35C19.88 21.42 20.02 21.56 20.09 21.7C20.51 22.54 21.35 23.03 21.98 23.66C22.4 24.08 22.82 24.36 23.45 24.43C24.29 24.43 25.13 24.43 26.04 24.43C26.46 24.43 26.88 24.29 27.3 24.08C27.93 23.8 28.07 23.24 27.79 22.68C27.65 22.4 27.44 22.05 27.23 21.84C26.53 21.14 25.83 20.51 25.13 19.81C24.92 19.6 24.64 19.39 24.43 19.11C24.22 18.9 24.22 18.62 24.36 18.41C24.57 18.06 24.85 17.64 25.06 17.29C25.76 16.24 26.53 15.19 27.23 14.14C27.51 13.72 27.65 13.3 27.79 12.81C27.93 12.32 27.72 11.97 27.3 11.9C27.09 11.83 26.88 11.83 26.67 11.83C25.48 11.83 24.36 11.9 23.17 11.9C22.82 11.9 22.61 12.04 22.47 12.32C22.19 12.88 21.98 13.44 21.63 14C21 15.12 20.37 16.17 19.74 17.22C19.67 17.36 19.32 17.43 19.11 17.43C19.04 17.43 18.9 17.15 18.9 16.94C18.9 15.82 18.9 15.12 18.9 14.49ZM35 29C35 32.3137 32.3137 35 29 35H5.99997C2.68626 35 -2.70116e-05 32.3137 -2.70116e-05 29V6C-2.70116e-05 2.68629 2.68626 0 5.99997 0H29C32.3137 0 35 2.68629 35 6V29Z" fill="#002277"/>
</svg>
