<svg width="35" height="35" viewBox="0 0 35 35" fill="none" xmlns="http://www.w3.org/2000/svg">
<path d="M17.64 26.6C14.56 26.46 11.62 26.46 8.68003 26.25C6.51003 26.11 5.39004 25.13 5.04004 23.03C4.83004 21.98 4.76004 20.93 4.69004 19.88C4.55004 17.22 4.55004 14.56 5.04004 11.9C5.11004 11.48 5.25002 10.99 5.46002 10.64C6.02002 9.38 7.00003 8.75 8.40003 8.68C10.57 8.54 12.67 8.4 14.84 8.4C18.55 8.4 22.26 8.54 25.97 8.61C26.39 8.61 26.81 8.68 27.23 8.75C28.91 9.03 29.89 10.08 30.24 11.97C30.45 13.16 30.52 14.35 30.59 15.54C30.66 17.85 30.66 20.16 30.31 22.47C30.24 23.03 30.1 23.59 29.89 24.15C29.4 25.48 28.35 26.25 26.88 26.32C23.66 26.39 20.58 26.46 17.64 26.6ZM21.91 17.08C19.53 15.89 17.29 14.7 14.98 13.51C14.98 15.89 14.98 18.27 14.98 20.65C17.29 19.46 19.53 18.27 21.91 17.08ZM35 6C35 2.68629 32.3137 0 29 0H6C2.68629 0 2.36934e-06 2.68629 5.29207e-06 6.00001L2.55783e-05 29C2.8501e-05 32.3137 2.68632 35 6.00003 35H29C32.3137 35 35 32.3137 35 29V6Z" fill="#002277"/>
</svg>
